<?xml version="1.0" standalone="no"?>
<!DOCTYPE svg PUBLIC "-//W3C//DTD SVG 20010904//EN"
 "http://www.w3.org/TR/2001/REC-SVG-20010904/DTD/svg10.dtd">
<svg version="1.0" xmlns="http://www.w3.org/2000/svg"
 width="970.000000pt" height="1280.000000pt" viewBox="0 0 970.000000 1280.000000"
 preserveAspectRatio="xMidYMid meet">
<metadata>
Created by potrace 1.15, written by Peter Selinger 2001-2017
</metadata>
<g transform="translate(0.000000,1280.000000) scale(0.100000,-0.100000)"
fill="#000000" stroke="none">
<path d="M2488 12765 c-81 -18 -169 -45 -195 -58 -26 -14 -74 -38 -106 -52
-32 -15 -83 -50 -113 -79 -53 -49 -57 -57 -108 -203 -29 -83 -57 -168 -61
-190 -18 -93 -23 -222 -13 -311 13 -109 9 -126 -59 -243 -33 -56 -46 -91 -50
-132 -7 -71 8 -97 77 -128 47 -21 50 -25 50 -58 0 -20 9 -53 20 -74 11 -20 20
-46 20 -57 0 -11 20 -39 45 -62 24 -23 47 -54 50 -70 3 -15 8 -42 11 -58 3
-17 17 -44 31 -60 24 -29 27 -30 121 -30 l96 0 88 50 c49 28 101 50 116 50 44
0 150 -107 195 -196 37 -73 67 -172 67 -218 0 -20 -14 -40 -52 -74 -29 -26
-85 -79 -126 -119 -75 -74 -89 -81 -231 -124 -101 -31 -145 -67 -205 -169 -80
-137 -125 -252 -167 -429 -22 -91 -51 -184 -63 -206 -13 -22 -47 -80 -76 -130
-120 -206 -183 -326 -220 -420 -46 -118 -112 -256 -121 -253 -24 9 -373 387
-418 453 -30 44 -72 100 -92 125 -49 60 -165 249 -201 329 -16 35 -30 78 -31
95 -1 34 18 183 33 259 18 87 12 143 -19 205 -15 31 -50 123 -76 204 -26 81
-56 160 -66 177 -24 40 -65 42 -110 4 -28 -24 -42 -28 -101 -29 -38 0 -74 -6
-80 -12 -7 -7 -27 -12 -44 -12 -43 0 -85 -16 -104 -40 -8 -11 -35 -30 -60 -42
-40 -20 -46 -28 -55 -69 -7 -32 -21 -56 -47 -81 -34 -32 -38 -41 -38 -84 0
-27 7 -92 15 -144 12 -80 24 -114 75 -215 33 -66 84 -150 112 -186 122 -154
240 -343 294 -470 18 -42 44 -95 58 -117 13 -21 68 -124 120 -228 209 -413
254 -482 534 -813 40 -47 98 -123 129 -168 85 -125 141 -138 276 -65 181 100
186 104 314 240 173 183 301 350 508 664 l71 107 55 -41 c82 -62 144 -86 261
-103 58 -8 113 -17 122 -21 9 -3 50 -56 92 -118 90 -133 203 -277 282 -360 32
-34 70 -77 84 -96 25 -32 168 -332 168 -350 0 -5 -26 -17 -57 -28 -156 -53
-242 -82 -283 -92 -90 -24 -236 -72 -257 -86 -12 -8 -82 -38 -155 -68 -148
-59 -290 -129 -382 -186 -34 -20 -96 -56 -139 -79 -91 -49 -204 -123 -337
-220 -52 -39 -138 -99 -190 -135 -112 -76 -326 -281 -336 -322 -4 -15 -20 -52
-36 -82 -15 -30 -38 -85 -49 -124 l-21 -69 22 -62 c23 -64 221 -458 292 -581
22 -37 57 -100 77 -140 73 -141 143 -250 219 -343 42 -52 93 -116 113 -144 66
-91 173 -221 254 -309 382 -411 580 -652 736 -895 32 -49 67 -102 79 -117 25
-33 25 -34 -6 -80 -20 -28 -34 -38 -53 -38 l-26 0 -3 -123 c-2 -116 -1 -124
22 -155 22 -31 25 -72 5 -72 -5 0 -22 -19 -39 -42 -22 -30 -30 -52 -30 -85 0
-44 11 -62 59 -94 l25 -15 -62 -118 c-34 -65 -62 -126 -62 -136 0 -10 -4 -21
-9 -24 -5 -4 -12 -30 -16 -59 -6 -50 -11 -56 -98 -140 -50 -48 -118 -109 -151
-134 -104 -78 -118 -117 -86 -245 25 -95 29 -102 81 -129 93 -47 326 -2 555
107 39 19 73 34 77 34 4 0 27 15 52 34 24 19 58 37 75 41 21 5 39 19 55 45 20
31 34 41 78 54 30 9 61 23 68 32 8 10 50 43 94 75 44 32 100 74 125 92 25 19
68 46 96 60 28 14 64 37 80 50 16 14 61 42 99 63 72 39 162 100 244 166 25 21
81 65 124 99 83 65 123 114 133 167 8 40 -20 75 -82 103 -33 15 -43 26 -53 60
-7 23 -32 62 -55 88 -23 25 -65 75 -93 111 -97 124 -324 318 -393 335 -37 10
-48 21 -130 140 -49 72 -111 159 -137 194 -26 35 -52 73 -58 85 -6 11 -39 66
-72 121 -33 55 -84 147 -113 205 -29 57 -63 119 -76 136 -40 52 -102 206 -129
321 -14 59 -32 133 -41 163 -26 90 -128 311 -178 387 -49 74 -201 265 -276
346 -46 51 -80 96 -78 105 5 24 102 50 227 62 153 14 464 27 964 41 415 12
437 14 437 31 0 16 50 48 74 48 2 0 6 -121 8 -268 2 -209 6 -273 17 -285 10
-13 31 -17 86 -17 88 0 105 -5 105 -34 0 -33 65 -284 93 -361 84 -231 168
-439 234 -580 44 -93 97 -214 117 -268 21 -54 48 -112 60 -130 12 -18 28 -48
35 -67 8 -19 46 -93 84 -165 124 -228 307 -486 388 -544 64 -47 208 -117 289
-142 41 -12 120 -44 175 -72 55 -27 135 -65 179 -83 95 -40 114 -52 569 -357
140 -93 313 -196 432 -257 61 -31 166 -93 235 -137 69 -44 145 -90 169 -103
24 -12 74 -49 111 -83 36 -34 120 -109 185 -167 186 -165 274 -247 350 -328
83 -88 110 -127 119 -166 l7 -29 -49 7 c-66 9 -98 -5 -107 -43 -7 -34 -15 -37
-47 -20 -41 22 -76 28 -94 15 -51 -37 84 -112 227 -126 68 -6 100 -15 155 -43
39 -20 75 -41 81 -49 19 -22 173 -328 173 -342 0 -7 23 -48 51 -91 52 -80 125
-238 185 -402 18 -51 48 -120 65 -155 34 -67 131 -171 174 -188 39 -15 105
-12 159 6 53 18 150 102 195 168 36 52 71 162 71 221 0 25 8 62 19 83 24 49
32 99 22 143 -5 21 -4 57 2 86 9 44 8 59 -10 105 -15 39 -19 65 -14 89 4 19 3
52 -2 74 -47 203 -57 292 -61 555 -4 306 -33 434 -115 503 -38 31 -40 32 -176
55 -60 11 -141 32 -179 47 -61 24 -87 28 -240 35 -95 5 -190 13 -212 19 -52
14 -100 51 -294 227 -43 40 -96 82 -117 93 -21 12 -58 49 -82 82 -24 33 -71
81 -104 107 -32 26 -73 67 -90 92 -16 25 -111 126 -211 225 -100 99 -224 229
-276 289 -149 172 -202 226 -250 259 -25 17 -66 48 -91 68 -25 21 -73 54 -105
72 -32 18 -68 38 -79 45 -11 6 -72 37 -135 68 -63 31 -144 74 -180 95 -36 21
-84 45 -108 53 -24 9 -56 25 -72 36 -16 11 -50 27 -75 34 -106 32 -132 77
-155 261 -6 50 -22 144 -35 210 -14 68 -29 191 -35 285 -6 91 -17 206 -26 255
-8 50 -20 119 -26 155 -5 36 -22 112 -36 170 -49 202 -59 731 -23 1185 28 360
25 391 -69 715 -37 128 -75 195 -164 288 -61 64 -96 92 -143 113 -52 24 -66
36 -92 81 -47 82 -77 118 -127 154 -25 18 -84 66 -129 106 -46 39 -121 95
-167 123 -53 33 -88 61 -97 80 -36 73 -125 276 -147 335 -14 36 -42 94 -64
130 -45 75 -74 166 -89 274 -11 78 -103 458 -146 601 -13 44 -26 101 -29 127
-5 40 -3 48 14 53 11 4 20 11 20 16 0 5 5 9 10 9 6 0 10 -22 10 -49 0 -28 4
-53 10 -56 5 -3 26 2 45 11 36 17 65 58 65 91 0 16 6 18 34 15 32 -4 36 -1 56
39 26 50 22 117 -10 177 -11 20 -20 45 -20 55 0 44 -60 147 -124 212 -36 37
-66 71 -66 76 0 4 9 11 21 14 17 6 20 13 15 33 -3 15 -8 41 -12 59 -3 19 -28
55 -60 89 -30 31 -54 60 -54 64 0 28 117 63 250 75 279 25 645 85 855 141 29
7 114 14 205 15 151 1 157 1 245 -31 50 -17 114 -45 142 -62 57 -32 250 -106
378 -144 97 -30 305 -74 344 -74 16 0 48 -7 72 -15 49 -18 469 -105 503 -105
13 0 45 -11 72 -25 27 -14 99 -46 159 -71 126 -52 169 -78 241 -146 74 -70
248 -152 329 -154 33 -1 107 -10 165 -19 58 -10 128 -19 157 -22 50 -5 52 -4
68 27 12 24 21 30 33 24 9 -4 47 -9 85 -12 l67 -4 40 40 c74 74 48 145 -66
177 -33 9 -65 18 -71 20 -15 5 -17 31 -3 40 14 8 13 91 -1 118 -7 11 -13 43
-13 69 -1 32 -9 58 -24 78 -21 28 -22 32 -7 61 9 17 15 48 13 72 -3 37 -7 44
-39 60 -65 31 -185 43 -291 28 -51 -8 -136 -19 -188 -26 l-95 -13 -296 99
c-163 54 -302 99 -309 99 -6 0 -76 25 -154 56 -194 78 -430 152 -488 154 -4 0
-23 15 -42 34 -43 40 -203 98 -491 175 -104 29 -239 67 -300 86 -152 48 -219
56 -383 43 -75 -5 -213 -7 -307 -3 -93 3 -348 9 -566 13 -306 5 -400 10 -412
20 -9 8 -23 36 -32 62 -20 60 -89 139 -161 185 -60 38 -65 51 -84 195 -20 152
-37 204 -116 354 -100 189 -152 246 -279 301 -87 38 -94 39 -200 40 -110 0
-110 0 -200 -43 -102 -49 -106 -49 -145 19 -24 40 -38 50 -170 116 l-145 72
-140 0 c-122 -1 -159 -5 -287 -34z m1056 -510 c28 -30 87 -202 88 -254 0 -47
-42 -189 -80 -271 l-31 -65 4 85 c19 355 19 344 -9 431 -14 44 -24 85 -20 90
9 15 24 10 48 -16z m756 -747 c0 -4 -6 -8 -14 -8 -18 0 -56 52 -56 77 1 14 9
9 35 -21 19 -22 35 -43 35 -48z"/>
</g>
</svg>
